<svg xmlns="http://www.w3.org/2000/svg" viewBox="0 0 400 300"><defs><style>.cls-1{fill:#f9f9f9;}.cls-2{fill:#c3c4c3;}.cls-3{fill:#efefee;}.cls-4{fill:#ececeb;}.cls-5{fill:#d0d0cf;}.cls-6{fill:#e2e2e1;}.cls-7{fill:#dededd;}.cls-8{fill:#fbfbfb;}.cls-9{fill:#cbcbca;}.cls-10{fill:#cccccb;}.cls-11{fill:#f6f6f5;}.cls-12{fill:#b2b2b2;}.cls-13{fill:#bbbcbc;}.cls-14{fill:#c6c7c6;}.cls-15{fill:#d5d5d5;}.cls-16{fill:#f9f9f8;}.cls-17,.cls-18{fill:none;stroke:#e0e0e0;stroke-linecap:round;stroke-linejoin:round;stroke-width:5px;}.cls-17{opacity:0.24;}.cls-18{opacity:0.25;}</style></defs><g id="Camada_2" data-name="Camada 2"><g id="Camada_1-2" data-name="Camada 1"><rect class="cls-1" width="400" height="300"/><path class="cls-2" d="M170.59,164c0-1.29.34-2.58,0-3.86v-.33a1.59,1.59,0,0,0,0-1.51V158c0-.16,0-.33,0-.5a1.67,1.67,0,0,0,0-1.51v-1.85c.17-.11.16-.22,0-.33v-.51c.27-.25.14-.56.12-.86l-.12-.65v-.33a.8.8,0,0,0,0-1v-.67c.16-.11.17-.22,0-.33v-.67c.16-.12.16-.23,0-.34,0-.22.08-.43.13-.65l-.12-.19v-1c.35-.34.24-.87.46-1.34.17.21.27.36.38.5v4.7a19.37,19.37,0,0,0,0,2.85c-.16.12-.17.23,0,.34V154a1,1,0,0,0,0,1.17v3.52c-.18.11-.18.23,0,.34v2.34c0,1,0,2,0,3a1.78,1.78,0,0,0,.28.94,3,3,0,0,0,3,1.3c1.09,0,2.22,0,3.31,0,2.05,0,4.1.12,6.15.11.32,0,.86.24.93-.2s-.45-.59-.81-.75a1,1,0,0,0-.25,0c.06-.43-.22-.67-.5-.91a9.14,9.14,0,0,1-1.8-2.72,8.35,8.35,0,0,1-.6-1.54,13,13,0,0,1-1.22-4.85,24.51,24.51,0,0,1,0-3.09,21.57,21.57,0,0,1,1.05-3.28,11.31,11.31,0,0,1,3-5.15,1.08,1.08,0,0,0,.27-.93h.5c.26.25.3,0,.34-.16.31-.31.76-.47,1-.85a.34.34,0,0,0,.33-.18,1.06,1.06,0,0,0,.87-.65.59.59,0,0,0,.51-.32l.3,0c.44-.15.94-.17,1.2-.64l.78-.05c.46-.1.92-.18,1.36-.31,1.38-.4,2.85-.26,4.23-.67h.64a5.24,5.24,0,0,0,1,0c.36-.06.84.27,1.06-.3h.67c1,.45,2,0,3.09.11a6.91,6.91,0,0,0,2.13.19l.48,0c.08.44.42.3.69.32l.32,0a.3.3,0,0,0,.36.31,5.67,5.67,0,0,0,1.48.52l.65.21a.32.32,0,0,0,.35.3h0a4.75,4.75,0,0,0,2.2,1.81.81.81,0,0,0,.24.57,14.39,14.39,0,0,1,2.44,3.65,31.57,31.57,0,0,0,2.19,4.85c-.47,0-.66.21-.38.62s.12.43-.18.54c-.09,0-.4,0-.26.16.79.76-.34,1.71.28,2.47-.41,1.38.11,3-.93,4.2a1.12,1.12,0,0,0-.21.78,1,1,0,0,1-.39.83c-.31.27-.83.66-.36,1.27.17.22-.07.61-.33.44-.64-.41-.67.12-.85.45s-.12.54-.36.51c-.84-.08-.76.58-.87,1-.07.29-.17.45-.49.45s-.56.28-.54.67h-.34c0-.17-.08-.35-.28-.3s-.35.37-.39.63c-.27,0-.53,0-.48.4s.23.21.43.23c1.92.2,3.85,0,5.79.19,1.23.13,2.56.09,3.82.19a11.45,11.45,0,0,0,5.61-1.06c.25-.11.56-.18.72-.55a3.33,3.33,0,0,0-1.54,0c-.88.27-1.28,0-1.08-.93a7.45,7.45,0,0,0,.29-1.59c0-.65.33-1.25-.23-1.83-.09-.09-.09-.42,0-.46.62-.37.18-.9.16-1.31s-.28-.86.19-1.23c.06-.05-.08-.32,0-.46.37-1.57-1-3.27.37-4.76a.22.22,0,0,0,0-.22c-.74-1.07-.27-2.3-.48-3.43-.11-.6.27-1.33-.41-1.8.1-.08.21-.15.31-.24.46-.45-.12-.18-.19-.27v-.31c.3-.27.08-.31-.15-.35a15.92,15.92,0,0,1-.13-3.52c.36-.1.46-.71,1-.51h1.83c.12.5.53.33.82.32.66,0,1,.23.86.88a15.51,15.51,0,0,0,0,3c0,3.2,0,6.39,0,9.59a9.16,9.16,0,0,1,0,2.22.44.44,0,0,0,.41.54c.24,0,.26-.18.25-.34-.17-1.55.24-3.09.09-4.65-.1-1.11.07-2.23,0-3.35,0-1.41.08-2.83.05-4.23,0-.67,0-1,.81-.76.36.41.07.84.05,1.26,0,.64,0,1.28,0,1.91-.17,0-.32.08-.29.3s.15.19.29.21v2.18c-.12,0-.28,0-.24.2s.15.1.24.14v2.18c-.12,0-.28,0-.24.2s.16.09.24.14v2c-.13,0-.27.05-.29.22s.12.27.29.29c0,.22,0,.45,0,.67-.11,0-.24,0-.24.17s.13.15.24.16V159c-.08.05-.23.1-.23.14,0,.24.21.17.35.21a7.07,7.07,0,0,1-.07,2,17,17,0,0,0,.11,2.46c-.24.24-.1.56-.15.84a.28.28,0,0,0-.3.36l0,.64c-.7.12-.94.89-1.63,1.1a22.47,22.47,0,0,0-3.83,1.6,1.32,1.32,0,0,1-.72.15l-4.89-.16a.55.55,0,0,0-.83,0h-.68a6.48,6.48,0,0,0-3.85,0h-.34a13.16,13.16,0,0,0-6.39.14,3.82,3.82,0,0,1-.79.2c-.85.09-1.68.2-2.53.25-1.12.07-2.24.18-3.36.27a6.53,6.53,0,0,0-2.19.32h-2c-.24,0-.49-.08-.68.16a5.41,5.41,0,0,0-1.84-.17c0-.08,0-.21-.09-.22a14,14,0,0,1-3.81-1.55,2.62,2.62,0,0,0-1.48-.42c-1.51.05-3,0-4.53,0a6.59,6.59,0,0,1-1.39.12c-1.65-.21-3.3-.17-5-.29a19,19,0,0,1-2.71-.35h-.14a.84.84,0,0,0-.53-.65l-.17-.17a.32.32,0,0,0-.32-.36l0-.82C170.72,164.57,170.85,164.26,170.59,164Zm17.1-3.86h0c0,.61.37.75.84.84a3.31,3.31,0,0,1,1.18,1.17c-.1.05-.24.08-.28.15-.52,1-1.16,1.16-1.85.23a6.17,6.17,0,0,0-1.25-.95.4.4,0,0,0-.54,0c-.19.17,0,.35.07.51.24.35.47.64,0,1.06s.08.48.3.63c.3-.15-.08-.47.21-.58a.32.32,0,0,1,.37.13.6.6,0,0,1,.05.7.9.9,0,0,1-.65.48c-.25,0-.35.23-.2.43a5.14,5.14,0,0,0,1.66,1.78,22.9,22.9,0,0,1,2.55,1.48,3.69,3.69,0,0,0,2.42.5,9.43,9.43,0,0,0,6-.64c.27-.12.51-.19.53-.53l1.17-.52a.82.82,0,0,0,.84-.66A13.21,13.21,0,0,0,206,160c.18,0,.46,0,.44.24s0,.45.29.41a.32.32,0,0,0,.27-.44c-.15-.6.39-1.09.25-1.69-.06-.23.16-.36.38-.29s.41.13.49.27,0,.37-.22.53c-.45.31.07.7,0,1.06a.15.15,0,0,0,.22.16c.37-.16.14-.46.15-.72s.34-.53.72-.53.31.26.25.51a.68.68,0,0,0,.39.8c.12-1.27.82,0,1.26-.34s.3.38.5.54a.34.34,0,0,1-.16.33,1.79,1.79,0,0,0-1,1.68v.17a17.29,17.29,0,0,0-1.5,1.34,5.92,5.92,0,0,1-2.57,2c-.2.06-.32.16-.23.35s.28.13.43,0a9.88,9.88,0,0,0,1.24-.69c1-.8,2.46-1.14,3-2.56.28-.23.66-.33.84-.67a.32.32,0,0,0,.34-.34c.34-.74.66-1.5,1-2.22a10,10,0,0,0,1.14-4c.21,0,.42-.08.16-.34a2.92,2.92,0,0,0,.17-1.17c.24-.34.35-.65-.16-.84a12.36,12.36,0,0,0-2-7.38l0-.07,0,.07a11.19,11.19,0,0,0-1.68-2.52c0-.4-.36-.44-.67-.5a2.23,2.23,0,0,0-1-.76c-.86-.51-1.53-1.35-2.56-1.59-.32-.48-.87-.45-1.34-.6-.08,0,0,.17,0,.27a3.37,3.37,0,0,0-1.17-.5.35.35,0,0,0-.34-.17h-.67a7.4,7.4,0,0,0-3.31-.06c-1.47.07-2.93.38-4.41.39h-1a12.58,12.58,0,0,0-3.46.62,12,12,0,0,0-3.32,1.64c-.66.49-1.45.91-1.77,1.77h0c-.45.06-.7.41-1,.7a13.75,13.75,0,0,0-1.88,2.66,12.91,12.91,0,0,0-1.66,5.88c0,.6.24.41.5.15a1.9,1.9,0,0,1,.42,1.63c0,.49.35.45.47.67.32.54.46.22.71,0s.4-.11.58.09a2.18,2.18,0,0,1,.65,1.24,8.1,8.1,0,0,0,.75,1.83c.1.28.4.57.73.35.68-.48,1.19-.08,1.72.25h0C187.35,159.89,187.35,160.14,187.69,160.15Z"/><path class="cls-3" d="M227.77,164.68c0-.28-.09-.6.15-.84.43.12.86.22,1.29.35a3.88,3.88,0,0,1,1.07,1.8,3.53,3.53,0,0,1-1.46,2.22,22.28,22.28,0,0,1-6.35,2.06,21.22,21.22,0,0,1-4,.27,4,4,0,0,0-1.87.3,1.18,1.18,0,0,1-1,.13,6.27,6.27,0,0,0-3.19.05c-.82.16-1.66.35-2.48.58a21.4,21.4,0,0,1-2.38.43c-1,.17-2,0-3,.23-1.16.28-2.4-.3-3.49.44a.93.93,0,0,1-.66,0,28.45,28.45,0,0,0-3.68-.26,39.23,39.23,0,0,0-4.19-.24c-.85.05-1.7-.38-2.56,0a.18.18,0,0,1-.16,0c-1-1-2.34-.24-3.4-.81a3.27,3.27,0,0,0-1.94-.23,9.48,9.48,0,0,1-2.66-.4,5.82,5.82,0,0,0-1.54-.2,6.87,6.87,0,0,1-3.15-.6,5.24,5.24,0,0,0-1.81-.18,6.52,6.52,0,0,1-2.65-.74,2.81,2.81,0,0,0-.8-.18c-.54-.1-1.08-.18-1.34-.82-.17-.41-.69-.4-1.09-.52s-.94-.2-.7-.87a.23.23,0,0,0,0-.16c-.11-.34-.67-.56-.33-1a3.32,3.32,0,0,1,1.57-1.05l.32-.08c0,.24,0,.48.32.51l0,.82a.31.31,0,0,0,.32.36l.17.17c0,.36.08.65.53.65h.14c.12.47.55.4.87.5,1,.32,2.05.17,3,.74a12.56,12.56,0,0,0,5.25,1.23c1.51.14,3,.55,4.48.81a13.89,13.89,0,0,0,3.52.49c1-.1,1.93.22,2.9.18s1.87.67,2.91.26a1.35,1.35,0,0,1,.89.13,1.51,1.51,0,0,0,.64.14c1.75-.27,3.51,0,5.27-.16.9-.05,1.77-.26,2.7-.23,1.26,0,2.48-.85,3.81-.24a.47.47,0,0,0,.4-.07,3.28,3.28,0,0,1,2.47-.5,16.76,16.76,0,0,0,3.5-.38c1.72-.26,3.46-.08,5.16-.48.29-.07.73.25,1,0a5.65,5.65,0,0,1,2.57-.83,13.8,13.8,0,0,0,3.51-1.9,1.18,1.18,0,0,0,.67-.91l0-.64A.32.32,0,0,0,227.77,164.68Z"/><path class="cls-3" d="M221.6,143.38a15.92,15.92,0,0,0,.13,3.52c-.24.24-.06.3.15.35,0,.1,0,.21,0,.31-.32.05-.3.28-.28.52,0,1.5,0,3,0,4.52l-.06,6c0,.16-.06.29-.2.32s-.23-.11-.3-.23a1.65,1.65,0,0,1-.1-.82c0-2.31,0-4.62,0-6.92,0-2.56-.25-5.11-.15-7.66,0-.63-.24-.77-.79-.73-1.39.1-2.78,0-4.15,0-1.56.1-3.12.12-4.68.13a.56.56,0,0,0-.46.16,4.75,4.75,0,0,1-2.2-1.81l1.08.58a.57.57,0,0,0,.62-.12.32.32,0,0,0,0-.51,1.37,1.37,0,0,1-.2-1,25.18,25.18,0,0,0,.08-3.78c-.11-.88.34-1.76-.07-2.61,0-.06,0-.18.07-.24.41-.51.13-.93-.18-1.34a3.15,3.15,0,0,1-.43-.81c-.6-1.58-1.22-3.16-1.83-4.74l-.16-.35h.5c-.05.38.2.68.5.62.76-.15,1.35.38,2.06.4s1.06.61.68,1.29c0,.07-.12.15-.11.21a18.28,18.28,0,0,0,1,2.88c.08.21.31.37.41.62s.31.22.49.12a.23.23,0,0,0,.06-.36c-.57-.45-.36-1.14-.54-1.7-.1-.31-.16-.59-.51-.69-.54-.16-.45-.43-.08-.68s.44-.34.18-.65c-.1-.12-.14-.26,0-.34s.26,0,.34.17a.82.82,0,0,0,.83.46v.16c-.18.14-.54.15-.46.48s.32,0,.49.08.29.23.43.36a11.62,11.62,0,0,1,1.72,2.45c0,.43-.22.52-.58.49-.87-.06-1.7.44-2.59.18-.22-.06-.65,0-.45.35.33.53.11.9,0,1.38a3.48,3.48,0,0,0,.06,2.44c.32.75-.08,1.63-.08,2.46,0,.45-.14,1-.19,1.52s.25.9.87.9c2.28,0,4.55,0,6.83,0,.54,0,1-.28,1.63,0,.38.18.57-.13.57-.56,0-1.21-.09-2.42,0-3.64.09-1.77,0-3.55,0-5.33.61-.09.89.4,1.21.75s-.24.54-.3.83a1.63,1.63,0,0,0,.43,1.77l.17.51c-.61.12-1,.51-.69,1.08.44.95-.28,1.85-.05,2.72.16.66-.4,1.29.06,1.9,0,.32-.44.47-.34.83C221.4,142.53,221.61,143,221.6,143.38Z"/><path class="cls-4" d="M170.76,142.71c-.17-2.44.06-4.89-.11-7.34a2.77,2.77,0,0,1,2.85-2.48,5.2,5.2,0,0,0,1.14-.1c.47,0,.66-.37.63-.83-.09-1.64.47-2.26,2-2.52a13.39,13.39,0,0,1,4.38.22,5.16,5.16,0,0,1,1.54.8c.26.15.2.4.15.67a1.55,1.55,0,0,0,.06,1.14c.17.28.5.21.77.19s.42-.28.47-.58a1.51,1.51,0,0,1,1.55-1.42c1.38-.06,2.19.32,2.44,1.27a.65.65,0,0,0,.75.58h1.76c.92,0,1.24-.86,1.86-1.29a1.09,1.09,0,0,0,.52-.73c.28,0,.56-.36.84,0v.16l-.33.34c-.35,0-.43.32-.6.52-.85,1-1.81,1.79-3.26,1.49-.23,0-.49-.08-.67.17l-7.89.17c-.11-.17-.27-.12-.44-.12-1,0-2,.32-3.07.3a25.16,25.16,0,0,0-4.75.14,2.12,2.12,0,0,0-1.81,1.68,36.36,36.36,0,0,0-.15,5.42c0,.71,0,1.43,0,2.14Zm5-11.1c-.15.8.25,1,1,1,1.34.09,2.66-.21,4-.2.37,0,.78-.4.66-.6-.31-.49,0-1.4-.8-1.49-1.34-.14-2.69-.57-4,.12C176.09,130.75,175.63,130.92,175.8,131.61Z"/><path class="cls-5" d="M227.75,146.07c-.77-.28-.83.09-.81.76,0,1.4-.1,2.82-.05,4.23,0,1.12-.13,2.24,0,3.35.15,1.56-.26,3.1-.09,4.65,0,.16,0,.37-.25.34a.44.44,0,0,1-.41-.54,9.16,9.16,0,0,0,0-2.22c0-3.2,0-6.39,0-9.59a15.51,15.51,0,0,1,0-3c.11-.65-.2-.92-.86-.88-.29,0-.7.18-.82-.32.26,0,.53.06.68-.31.31-.72,1-.33,1.44-.32s.38.39.28.75.21.37.46.37h0c0,.19,0,.39.18.51C227.42,144.63,228,145.3,227.75,146.07Z"/><path class="cls-6" d="M223.09,136l-.17-.51c.47-.26.38-.63.16-1a.68.68,0,0,1,.31-1c.45-.23.63-.41.17-.79a.3.3,0,0,1-.09-.38.22.22,0,0,1,.36,0c.55.53,1.3.33,1.94.53h.33c-.11.41.45.6.34,1-.39.05-.78-.61-1.12-.1s-1.15.78-.27,1.44c0,0,0,.2,0,.22a.89.89,0,0,0-.31,1.36c.39.62-.43.9-.23,1.39a1.16,1.16,0,0,0,.18.27.78.78,0,0,1,.06.8c-.39.68.12,1.33.06,2,0,.29.06.5-.25.61s-.7.52-.93-.12c0-.13.12-.35.07-.38a1.72,1.72,0,0,1-.51-1.69c.16-1.18-.24-2.35,0-3.51C223.2,136.09,223.12,136,223.09,136Z"/><path class="cls-4" d="M225.77,132.81c-.64-.2-1.39,0-1.94-.53a.22.22,0,0,0-.36,0,.3.3,0,0,0,.09.38c.46.38.28.56-.17.79a.68.68,0,0,0-.31,1c.22.36.31.73-.16,1a1.63,1.63,0,0,1-.43-1.77c.06-.29.63-.47.3-.83s-.6-.84-1.21-.75a1,1,0,0,0-1.08-.44,29.42,29.42,0,0,1-5,.28,11.62,11.62,0,0,0-1.72-2.45c-.14-.13-.24-.3-.43-.36s-.42.23-.49-.08.28-.34.46-.48c.57.37,1.26.64,1.55,1.3.58,1.35,1.72,1.53,3,1.46a13.38,13.38,0,0,1,5.76.5c.51.2,1.12.21,1.64.46C225.49,132.43,225.75,132.49,225.77,132.81Z"/><path class="cls-4" d="M213.36,128.45a.82.82,0,0,1-.83-.46c-.08-.13-.18-.23-.34-.17s-.13.22,0,.34c.26.31.09.47-.18.65s-.46.52.08.68c.35.1.41.38.51.69.18.56,0,1.25.54,1.7a.23.23,0,0,1-.06.36c-.18.1-.4.11-.49-.12s-.33-.41-.41-.62a18.28,18.28,0,0,1-1-2.88c0-.06.07-.14.11-.21.38-.68.11-1.25-.68-1.29s-1.3-.55-2.06-.4c-.3.06-.55-.24-.5-.62h.84c.12.2.32.16.5.17a23.32,23.32,0,0,1,2.51.54C212.61,127.06,213,127.81,213.36,128.45Z"/><path class="cls-4" d="M226.44,133.82c.11-.41-.45-.6-.34-1a2.89,2.89,0,0,1,1.69,2.94c-.06,1.68-.22,3.35-.13,5,0,.83.47,1.74,0,2.59h-.34a20.77,20.77,0,0,1,0-4c.06-.64-.23-1.24-.17-1.9A5.19,5.19,0,0,0,226.44,133.82Z"/><path class="cls-4" d="M207.49,126.09l.16.35-.5.16c-.06-.09-.11-.09-.17,0h-.17c-.54-.32-1,0-1.5.17a.47.47,0,0,0-.51,0q-.17-.26-.33,0h-1.18a13.88,13.88,0,0,0-3.46.29c-.68.19-.49-.27-.4-.62l7-.51h1Z"/><path class="cls-4" d="M195.41,128.45,197,126.8a.77.77,0,0,1,.61-.2,9.76,9.76,0,0,0,1.08,0c.19,0,.34,0,.39.2s-.12.31-.32.39-.43,0-.65,0l-.07,0,.07,0v.16h-.33a.35.35,0,0,0-.34.16.81.81,0,0,0-.67.51.52.52,0,0,0-.34.5c-.42,0-.62.36-.84.67-.34.12-.47.59-1,.62C194.78,129.19,195.29,128.94,195.41,128.45Z"/><path class="cls-6" d="M170.76,142.71h.66v.16c0,.45.37.9,0,1.34-.12,0-.3,0-.26.21s.17.09.26.13a1,1,0,0,1,0,1.17l-.38-.5c-.22.47-.11,1-.46,1.34a5.3,5.3,0,0,1,0-1.82C170.67,144.06,170.68,143.38,170.76,142.71Z"/><path class="cls-3" d="M198.09,127.27v-.16h0c.22,0,.42.12.65,0s.39-.13.32-.39-.2-.22-.39-.2a9.76,9.76,0,0,1-1.08,0c.56-.63,1.21-.33,1.84-.16-.09.35-.28.81.4.62a13.88,13.88,0,0,1,3.46-.29.48.48,0,0,1-.59.44,14.65,14.65,0,0,0-3.17.19A1.82,1.82,0,0,1,198.09,127.27Z"/><path class="cls-3" d="M195.41,128.45c-.12.49-.63.74-.83,1.29.52,0,.65-.5,1-.62a1.13,1.13,0,0,1-1.17,1.18c-.28-.37-.56,0-.84,0A3.47,3.47,0,0,1,195.41,128.45Z"/><path class="cls-6" d="M170.59,158.31a1.59,1.59,0,0,1,0,1.51A1.61,1.61,0,0,1,170.59,158.31Z"/><path class="cls-6" d="M170.6,156a1.67,1.67,0,0,1,0,1.51A1.64,1.64,0,0,1,170.6,156Z"/><path class="cls-3" d="M207.49,125.93h-1C206.81,125.42,207.15,125.42,207.49,125.93Z"/><path class="cls-6" d="M170.59,150.42a.8.8,0,0,1,0,1C170.31,151.09,170.46,150.76,170.59,150.42Z"/><path class="cls-6" d="M170.73,164.85c-.32,0-.31-.27-.32-.51a.35.35,0,0,1,.18-.33C170.85,164.26,170.72,164.57,170.73,164.85Z"/><path class="cls-6" d="M170.71,152.41c0,.3.15.61-.12.86C170.33,152.94,170.26,152.64,170.71,152.41Z"/><path class="cls-5" d="M227.76,158.3c-.11,0-.24,0-.24-.16s.13-.16.24-.17S227.94,158.19,227.76,158.3Z"/><path class="cls-5" d="M227.88,159.33c-.14,0-.35,0-.35-.21,0,0,.15-.09.23-.14A.26.26,0,0,1,227.88,159.33Z"/><path class="cls-7" d="M227.28,143.37h.34c0,.18,0,.38-.16.5C227.25,143.76,227.28,143.56,227.28,143.37Z"/><path class="cls-3" d="M209.33,126.27c-.18,0-.38,0-.5-.17C209.1,125.83,209.26,125.92,209.33,126.27Z"/><path class="cls-5" d="M227.77,149.75c-.14,0-.27-.05-.29-.21s.12-.27.29-.3Z"/><path class="cls-5" d="M227.77,157.3c-.17,0-.32-.07-.29-.29s.16-.19.29-.22Z"/><path class="cls-6" d="M170.59,149.42c.17.11.16.22,0,.33Q170.31,149.58,170.59,149.42Z"/><path class="cls-6" d="M170.59,153.78c.16.11.17.22,0,.33Q170.31,153.95,170.59,153.78Z"/><path class="cls-5" d="M227.77,154.79c-.08,0-.23-.08-.24-.14s.12-.18.24-.2Z"/><path class="cls-6" d="M170.59,148.41c.16.11.16.22,0,.34C170.4,148.63,170.41,148.52,170.59,148.41Z"/><path class="cls-5" d="M227.77,152.27c-.09,0-.23-.08-.24-.14s.12-.18.24-.2Z"/><path class="cls-6" d="M170.6,147.57l.12.19C170.65,147.71,170.4,147.78,170.6,147.57Z"/><path class="cls-6" d="M170.59,155.29v.16C170.46,155.4,170.46,155.34,170.59,155.29Z"/><path class="cls-6" d="M170.59,160v.16C170.46,160.09,170.46,160,170.59,160Z"/><path class="cls-6" d="M170.59,155.63v.15Q170.4,155.7,170.59,155.63Z"/><path class="cls-6" d="M170.59,147.24v.16C170.46,147.35,170.46,147.29,170.59,147.24Z"/><path class="cls-6" d="M170.59,158v.16C170.46,158.08,170.46,158,170.59,158Z"/><path class="cls-6" d="M170.59,153.44v.17C170.46,153.55,170.46,153.5,170.59,153.44Z"/><path class="cls-6" d="M170.59,151.6v.16C170.46,151.71,170.46,151.65,170.59,151.6Z"/><path class="cls-6" d="M170.59,155v.15Q170.4,155,170.59,155Z"/><path class="cls-8" d="M194.4,130.3a1.13,1.13,0,0,0,1.17-1.18c.22-.31.42-.63.84-.67s.34-.26.34-.5a.81.81,0,0,1,.67-.51c.27.26.3,0,.34-.16h.33a1.82,1.82,0,0,0,1.44.13,14.65,14.65,0,0,1,3.17-.19.48.48,0,0,0,.59-.44h.34c0,.09.07.24.13.25s.18-.13.2-.25h.51q.17.26.33,0a.47.47,0,0,1,.51,0,1.8,1.8,0,0,0,1.5-.17h.34l.5-.16c.61,1.58,1.23,3.16,1.83,4.74a3.15,3.15,0,0,0,.43.81c.31.41.59.83.18,1.34-.05.06-.1.18-.07.24.41.85,0,1.73.07,2.61A25.18,25.18,0,0,1,210,140a1.37,1.37,0,0,0,.2,1,.32.32,0,0,1,0,.51.57.57,0,0,1-.62.12l-1.08-.58h0c0-.49,0-.5-.35-.3l-.65-.21c-.38-.49-.79-.95-1.51-.83h-.33l-.32,0c-.09-.41-.41-.31-.69-.32l-.48,0c-.06-.08-.1-.23-.18-.25a8.82,8.82,0,0,0-5-.05h-.67c-.67-.36-1.34.17-2,0-.29-.24-.54-.33-.67.15h-.68c0-.36-.27-.55-.53-.83l-.3.84h-.17c-.12-.19-.15-.53-.46-.46s-.18.39-.21.61l-2.35.2c.07-.47.4-.95-.11-1.36.24-.23.6.18.69-.16a.83.83,0,0,0-.27-.75c-.12-.12-.29-.19-.39-.31s-.12-.41.1-.38c.83.13.53-.34.53-.79,0-.62-.46-1-.54-1.59s-.36-.83-.94-.41c-.13.09-.38,0-.57,0-1.34-.15-2.69,0-4,0a23.48,23.48,0,0,1-3.14.06c-.5-.09-.61-.28-.57-.7l7.89-.17c.29.23.54.29.67-.17,1.45.3,2.41-.46,3.26-1.49.17-.2.25-.52.6-.52.45.22.28-.17.33-.34Z"/><path class="cls-9" d="M184.17,143.22a1.08,1.08,0,0,1-.27.93,11.31,11.31,0,0,0-3,5.15,21.57,21.57,0,0,0-1.05,3.28,24.51,24.51,0,0,0,0,3.09,13,13,0,0,0,1.22,4.85,8.35,8.35,0,0,0,.6,1.54,9.14,9.14,0,0,0,1.8,2.72c.28.24.56.48.5.91-1.49.35-3-.16-4.5,0-1.14.1-2.42-.29-3.51,0-.93.22-1.61-.3-2.46-.23s-1.3-1.27-1.07-2.35a5.66,5.66,0,0,0-.2-1.89v-.67c.33-.45.11-.9,0-1.35.2-1.59,0-3.19,0-4.79,0-.34.39-.73,0-1.08v-1a8.54,8.54,0,0,0,.16-2.52v-.5c0-.28.12-.6-.16-.84v-.67c.19-.13.16-.32.14-.51V145.9a.32.32,0,0,0-.15-.34c0-.38.12-.75.15-1.13.09-1.22.09-1.22,1.35-1.21a.8.8,0,0,0,1,0Z"/><path class="cls-10" d="M210.67,142.86a.56.56,0,0,1,.46-.16c1.56,0,3.12,0,4.68-.13,1.37-.08,2.76.06,4.15,0,.55,0,.82.1.79.73-.1,2.55.13,5.1.15,7.66,0,2.3,0,4.61,0,6.92a1.65,1.65,0,0,0,.1.82c.07.12.13.27.3.23s.2-.16.2-.32l.06-6c0-1.51,0-3,0-4.52h.16c.68.47.3,1.2.41,1.8.21,1.13-.26,2.36.48,3.43a.22.22,0,0,1,0,.22c-1.36,1.49,0,3.19-.37,4.76,0,.14.11.41,0,.46-.47.37-.22.79-.19,1.23s.46.94-.16,1.31c-.07,0-.07.37,0,.46.56.58.25,1.18.23,1.83a7.45,7.45,0,0,1-.29,1.59c-.2.9.2,1.2,1.08.93a3.33,3.33,0,0,1,1.54,0c-.16.37-.47.44-.72.55a11.45,11.45,0,0,1-5.61,1.06c-1.26-.1-2.59-.06-3.82-.19-1.94-.19-3.87,0-5.79-.19-.2,0-.4,0-.43-.23s.21-.4.48-.4a.59.59,0,0,0,.67-.33h.34c.72.42,1.51-.05,2.26.16.17,0,.82,0,.92-.5s.36-.63.67-.84a.45.45,0,0,0,.76-.07c.13-.16.12-.43.42-.43a1.2,1.2,0,0,0,.65-.26c.64-.34,1-1.35,2-1,.14,0,.25-.24.16-.28-.71-.35.09-.57.06-.85.36,0,.29-.24.19-.47s-.07-.33-.24-.27c-.95.35-.89-.71-1.47-1a.76.76,0,0,0,1-.67c-.09-.61.49-.61.66-1,.33-.7.51-1.34-.15-2,0,0,0-.11,0-.16a18.24,18.24,0,0,0-2-4.95,31.57,31.57,0,0,1-2.19-4.85,14.39,14.39,0,0,0-2.44-3.65A.81.81,0,0,1,210.67,142.86Zm4.48,22.69c-.06-.26-.19-.37-.36-.34s-.4.35-.53.58.09.24.19.19A6.88,6.88,0,0,0,215.15,165.55Zm6.24-5.21c0-.42.15-.72-.15-1a.18.18,0,0,0-.27.09C220.86,159.78,220.94,160,221.39,160.34Z"/><path class="cls-11" d="M181.65,133.15c0,.42.07.61.57.7a23.48,23.48,0,0,0,3.14-.06c1.33.06,2.68-.13,4,0,.19,0,.44.07.57,0,.58-.42.88,0,.94.41s.56,1,.54,1.59c0,.45.3.92-.53.79-.22,0-.2.24-.1.38s.27.19.39.31a.83.83,0,0,1,.27.75c-.09.34-.45-.07-.69.16.51.41.18.89.11,1.36s-.91.15-.88.78l-.78.05a1.06,1.06,0,0,0-1.2.64l-.3,0a.29.29,0,0,0-.37.3.32.32,0,0,1-.14,0,.74.74,0,0,0-.87.65.34.34,0,0,1-.33.18c-.07,0-.14-.14-.2-.13-1.37.13-2.74,0-4.12.09a28.35,28.35,0,0,1-4.32,0c-1.14-.06-2.31.41-3.39-.33-.11-.08-.18.08-.22.18s-.3.37-.44.33c-.76-.21-1.27.34-1.89.56v-.16c0-.71,0-1.43,0-2.14a36.36,36.36,0,0,1,.15-5.42,2.12,2.12,0,0,1,1.81-1.68,25.16,25.16,0,0,1,4.75-.14c1.05,0,2-.32,3.07-.3C181.38,133,181.54,133,181.65,133.15Z"/><path class="cls-10" d="M192.56,168.71a3.69,3.69,0,0,1-2.42-.5,22.9,22.9,0,0,0-2.55-1.48,5.14,5.14,0,0,1-1.66-1.78c-.15-.2-.05-.39.2-.43a.9.9,0,0,0,.65-.48.6.6,0,0,0-.05-.7.32.32,0,0,0-.37-.13c-.29.11.09.43-.21.58-.22-.15-.64-.33-.3-.63s.25-.71,0-1.06c-.11-.16-.26-.34-.07-.51a.4.4,0,0,1,.54,0,6.17,6.17,0,0,1,1.25.95c.69.93,1.33.81,1.85-.23,0-.07.18-.1.28-.15h0a.3.3,0,0,0,.33.34h0c.05.09.09.25.16.27a25.45,25.45,0,0,0,3,.53c.42,0,1,.16,1.37-.29a9,9,0,0,1,2-.68.31.31,0,0,0,.34-.33l.5-.18a.47.47,0,0,0,.51-.49.49.49,0,0,0,.5-.51.47.47,0,0,0,.5-.5c.33-.62,1-1,1-1.84.35-.08.43-.24.17-.51.12-.41.67-.64.5-1.17.28-.24.13-.56.16-.84v-.17c.17-.58.46-1.18-.16-1.68v-.33c.64-.29.18-.56,0-.84l-.17-.84c.27-.26.17-.56.08-.85a.32.32,0,0,1,.09-.37.18.18,0,0,1,.29,0c.4.7.5,0,.71-.15.48.21.26.68.38,1a9.17,9.17,0,0,1,.18,5.31,10.17,10.17,0,0,1-4.43,6.41,8.9,8.9,0,0,1-7,1.11,10.28,10.28,0,0,1-2.4-1.11c-.14-.07-.32-.22-.44,0s.06.29.2.4a5.48,5.48,0,0,0,1.76,1,10.66,10.66,0,0,0,4.4.65,9.24,9.24,0,0,0,6.49-3.65,11.08,11.08,0,0,0,2.06-4.47,15.38,15.38,0,0,0,.12-3.25,13,13,0,0,0-1-4.15c-.13-.42-.36-.37-.49.05a2.24,2.24,0,0,1-1.06-.65c.21-.71-.29-1.23-.41-1.84a.34.34,0,0,1,.09-.29.27.27,0,0,1,.37.05,6.71,6.71,0,0,1,.87,1c.33.52.66.9,1.32.51.17-.11.41-.06.44.06.26.87.92.52,1.48.57a15.57,15.57,0,0,1-.92-2.42c.28,0,.35.24.46.43a15,15,0,0,1,1.67,9.21,13.22,13.22,0,0,1-4.58,8.63,8.44,8.44,0,0,1-3.09,2c-.26-.25-.3,0-.34.17l-.34.33a2.59,2.59,0,0,0-1.21,0,11.3,11.3,0,0,1-3.67.23c-.23,0-.55-.15-.72.16C192,168.56,192.38,168.43,192.56,168.71Z"/><path class="cls-12" d="M200.61,156.8c.17.53-.38.76-.5,1.17-.2.12-.17.32-.17.51,0,.8-.68,1.22-1,1.84a.47.47,0,0,0-.5.5.49.49,0,0,1-.5.51.47.47,0,0,0-.51.49l-.5.18a.3.3,0,0,0-.34.33,9,9,0,0,0-2,.68L190,162.5h0a.31.31,0,0,0-.33-.34h0a3.31,3.31,0,0,0-1.18-1.17,2,2,0,0,0-.84-.84h0a.5.5,0,0,0-.33-.5h0a4.15,4.15,0,0,0-.28-.69,5,5,0,0,1-.91-2.2,14.32,14.32,0,0,1,0-4,9.07,9.07,0,0,1,1.57-3.38,7.08,7.08,0,0,1,2.52-2,3.83,3.83,0,0,1,1.71-.71,8.16,8.16,0,0,1,4.51.91c.62.37,1.2.78,1.83,1.13a3.41,3.41,0,0,1,1.17,1.51c0,.25,0,.49.34.51v.16c0,.25,0,.49.33.51s.07.53.34.67l.17.84c-.36.28,0,.56,0,.84v.33c.06.56-.18,1.15.16,1.68V156C200.42,156.18,200.31,156.45,200.61,156.8Zm-11.75-7.22c-.17.47-.75.74-.67,1.34a.31.31,0,0,0-.33.35c-.11.55.22,1,.34,1.5-.26.26,0,.3.16.34l.17.33c0,.33.47.23.57.53a2.63,2.63,0,0,0,1.26,1.33c.85.53,1.82.33,2.73.52a1.46,1.46,0,0,0,1.44-.4c.36-.36.73-.63,1.18-.11a.43.43,0,0,0,.62,0c.64-.43,1.36-.79,1.43-1.71.2-.17.41-.34.61-.53a1.67,1.67,0,0,0,.06-2.15c-.28-.36-.09-1-.67-1.19-.1-.64-.71-.8-1.12-1.14a5.58,5.58,0,0,0-6.44-.19c-.24,0-.48,0-.5.33l-.5.34C188.87,149.09,188.86,149.34,188.86,149.58Z"/><path class="cls-13" d="M198.26,148.74c-.63-.35-1.21-.76-1.83-1.13a8.16,8.16,0,0,0-4.51-.91,3.83,3.83,0,0,0-1.71.71,7.08,7.08,0,0,0-2.52,2,9.07,9.07,0,0,0-1.57,3.38,14.32,14.32,0,0,0,0,4,5,5,0,0,0,.91,2.2,4.15,4.15,0,0,1,.28.69c-.53-.33-1-.73-1.72-.25-.33.22-.63-.07-.73-.35a8.1,8.1,0,0,1-.75-1.83,2.18,2.18,0,0,0-.65-1.24c-.18-.2-.39-.26-.58-.09s-.39.56-.71,0c-.12-.22-.47-.18-.47-.67a1.9,1.9,0,0,0-.42-1.63l.17-.34c.21-.16.21-.33,0-.5.07-.45-.17-.93.16-1.34.22,0,.42-.07.17-.34a8.31,8.31,0,0,1,1.29-3.32c.8-1.15,1.49-2.37,2.24-3.55h0a1,1,0,0,0,.74-.31c.46-.37.95-.7,1.43-1,.44.3.43-.08.51-.33a.5.5,0,0,1,.5-.33c0,.12,0,.3.22.25s.28-.35.29-.59h.33c.26.25.3,0,.34-.17H190a1.56,1.56,0,0,0,1.68-.5h.5c.64.16,1.28.46,1.85-.17a1.07,1.07,0,0,1,.67.17c.42.37.72,1,1.46.71.18-.06.31,0,.38.22s.21.52-.09.74a.56.56,0,0,1-.82,0c-.29-.28-.56-.41-.81,0a1.51,1.51,0,0,0,.83,1.84,3.72,3.72,0,0,1,2,1.43c.29.33.64.87.1,1.39-.27.27-.06.48.22.52C198.54,148.12,198.44,148.41,198.26,148.74Zm-4.76-5.22c.17,0,.32-.1.33-.3s-.13-.29-.31-.31a.23.23,0,0,0-.27.24C193.23,143.33,193.27,143.49,193.5,143.52Zm-10.05,11.67-.06.14c.05,0,.11.06.14,0s0-.08.06-.13Z"/><path class="cls-9" d="M194.9,140.19c1.48,0,2.94-.32,4.41-.39a7.4,7.4,0,0,1,3.31.06c-.38.54-1,.16-1.61.27a2,2,0,0,0,1.32.56,7.09,7.09,0,0,1,2.51.67c.85.26,1.52,1,2.33,1.3,1.19.47,1.74,1.53,2.54,2.34.32.33-.07,1.1.41,1.53,0,0,0,.09-.07.14-.6.84-.6.84.31,1.5-.09.2-.44.15-.44.48a.56.56,0,0,0,.61,0c.35-.2.67-.79,1-.64s.36.75.51,1.16a1.21,1.21,0,0,0,.37.44.34.34,0,0,1,0,.52c-.3.21-.24-.09-.32-.25s-.39-.25-.66-.24c.19.48,0,1.3,1,1,.17-.06.24.18.26.36a11,11,0,0,1,.34,2.8c-.2.16-.73-.35-.67.33-.77.11-1.38-.51-2.19-.45-.36,0-.41,0-.58.3s-.21.7-.49.52c-.51-.35-.78-.28-1.3.07s-.78.51-.71,1.09c0,0-.17.1-.26.15a19.66,19.66,0,0,0-.66-5.49,16.25,16.25,0,0,0-2.17-4.54,13.77,13.77,0,0,0-2.77-2.78,2.5,2.5,0,0,0-1.79-.78h-.16c0-.37-.14-.53-.51-.51-.53-.66-1.36-.71-2.07-1S195.36,140.84,194.9,140.19Zm14.23,13.43a.36.36,0,0,0-.41-.31.39.39,0,0,0-.32.42c0,.22.2.21.36.21S209.15,153.89,209.13,153.62Zm.22-3.71c.17,0,.36,0,.36-.24s-.19-.24-.36-.24-.29,0-.31.2S209.17,149.89,209.35,149.91Zm.67,0c.43.2.61.07.79-.21C210.49,149.53,210.3,149.68,210,149.91Zm-1.86.23c.29.13.43.13.55,0s0-.19,0-.19A2.63,2.63,0,0,0,208.16,150.14Z"/><path class="cls-6" d="M227.44,165.68a1.18,1.18,0,0,1-.67.91,13.8,13.8,0,0,1-3.51,1.9,5.65,5.65,0,0,0-2.57.83c-.24.21-.68-.11-1,0-1.7.4-3.44.22-5.16.48a16.76,16.76,0,0,1-3.5.38,3.28,3.28,0,0,0-2.47.5.47.47,0,0,1-.4.07c-1.33-.61-2.55.27-3.81.24-.93,0-1.8.18-2.7.23-1.76.12-3.52-.11-5.27.16a1.51,1.51,0,0,1-.64-.14,1.35,1.35,0,0,0-.89-.13c-1,.41-1.95-.29-2.91-.26s-1.89-.28-2.9-.18a13.89,13.89,0,0,1-3.52-.49c-1.49-.26-3-.67-4.48-.81a12.56,12.56,0,0,1-5.25-1.23c-1-.57-2-.42-3-.74-.32-.1-.75,0-.87-.5a19,19,0,0,0,2.71.35c1.65.12,3.3.08,5,.29a6.59,6.59,0,0,0,1.39-.12c.05.34.33.46.55.67.47.43,1.1,0,1.54.38,1.07.8,2.4.37,3.56.81.62.24,1.47-.39,1.9-.1.8.53,1.6.2,2.36.4a5.41,5.41,0,0,1,1.84.17c.3.24.55.29.68-.16h2a3.65,3.65,0,0,0,2,.33c.67.42,1.34.14,2,0h.67c.19,0,.39,0,.51-.17h.5c.33.32.76.08,1.12.19.55.16,1.08.32,1.51-.26.06-.08.26-.1.39-.09.76.08,1.45-.28,2.24-.24,1.43.07,2.86-.45,4.32-.34.4,0,.28-.23.32-.43h.5c0,.18.09.31.29.32a.31.31,0,0,0,.38-.32,8.93,8.93,0,0,0,2.68-.17h.68a.57.57,0,0,0,.83,0l4.89.16a1.32,1.32,0,0,0,.72-.15,22.47,22.47,0,0,1,3.83-1.6C226.5,166.57,226.74,165.8,227.44,165.68Z"/><path class="cls-14" d="M212.85,166c-.1.53-.75.54-.92.5-.75-.21-1.54.26-2.26-.16,0-.39.1-.67.54-.67s.42-.16.49-.45c.11-.46,0-1.12.87-1,.24,0,.25-.32.36-.51s.21-.86.85-.45c.26.17.5-.22.33-.44-.47-.61,0-1,.36-1.27a1,1,0,0,0,.39-.83,1.12,1.12,0,0,1,.21-.78c1-1.23.52-2.82.93-4.2-.62-.76.51-1.71-.28-2.47-.14-.14.17-.12.26-.16.3-.11.41-.23.18-.54s-.09-.62.38-.62a18.24,18.24,0,0,1,2,4.95c0,.05,0,.13,0,.16.66.61.48,1.25.15,2-.17.35-.75.35-.66,1a.76.76,0,0,1-1,.67c.58.26.52,1.32,1.47,1,.17-.06.19.14.24.27s.17.44-.19.47c-.47-.43-.69.2-1,.29-.18-.28.1-.5,0-.74s-.25-.39-.31-.29c-.22.37-.57,1.1-.48,1.16.59.44.12.67-.12.9a3.14,3.14,0,0,0-.92,1c-.3,0-.29.27-.42.43a.45.45,0,0,1-.76.07,1.19,1.19,0,0,0-.18-1.1,2.24,2.24,0,0,1-.79,1.3C212.13,165.74,212.33,166,212.85,166Z"/><path class="cls-5" d="M213,153.78a11,11,0,0,0-.34-2.8c0-.18-.09-.42-.26-.36-1,.35-.79-.47-1-1,.27,0,.54,0,.66.24s0,.46.32.25a.34.34,0,0,0,0-.52,1.21,1.21,0,0,1-.37-.44c-.15-.41-.22-1-.51-1.16s-.63.44-1,.64a.56.56,0,0,1-.61,0c0-.33.35-.28.44-.48-.91-.66-.91-.66-.31-1.5,0,0,.08-.13.07-.14-.48-.43-.09-1.2-.41-1.53-.8-.81-1.35-1.87-2.54-2.34-.81-.31-1.48-1-2.33-1.3a7.09,7.09,0,0,0-2.51-.67,2,2,0,0,1-1.32-.56c.66-.11,1.23.27,1.61-.27h.67c0,.21.07.42.34.17a3.37,3.37,0,0,1,1.17.5c.46.07.82.54,1.34.33,1,.24,1.7,1.08,2.56,1.59a2.23,2.23,0,0,1,1,.76c0,.43.31.52.67.5a11.19,11.19,0,0,1,1.68,2.52h0a12.36,12.36,0,0,1,2,7.38c0,.28-.11.6.16.84a2.92,2.92,0,0,1-.17,1.17.36.36,0,0,0-.16.34,10,10,0,0,1-1.14,4c-.38.72-.7,1.48-1,2.22a.32.32,0,0,0-.34.34c-.18.34-.56.44-.84.67-.1-.17-.36-.24-.33-.5v-.17a1.63,1.63,0,0,0,1-1.68.34.34,0,0,0,.16-.33,1.6,1.6,0,0,0,.68-.91c.45-1.06.44-2.22.83-3.29.22-.16.22-.33,0-.5,0-.34.27-.67,0-1v-.16A.58.58,0,0,0,213,153.78Z"/><path class="cls-14" d="M212.85,154.78c.27.34,0,.67,0,1-.52.17-.26.34,0,.5-.39,1.07-.38,2.23-.83,3.29a1.6,1.6,0,0,1-.68.91c-.2-.16-.1-.84-.5-.54s-1.14-.93-1.26.34a.68.68,0,0,1-.39-.8c.06-.25.18-.51-.25-.51s-.69.13-.72.53.22.56-.15.72a.15.15,0,0,1-.22-.16c.09-.36-.43-.75,0-1.06.22-.16.36-.32.22-.53s-.31-.21-.49-.27-.44.06-.38.29c.14.6-.4,1.09-.25,1.69a.32.32,0,0,1-.27.44c-.34,0-.32-.14-.29-.41s-.26-.21-.44-.24l.18-.84a.48.48,0,0,0,.32-.51v-.83c.5-.11.68-.31.17-.67a3.8,3.8,0,0,0,.17-1.34c.09,0,.26-.11.26-.15-.07-.58.24-.78.71-1.09s.79-.42,1.3-.07c.28.18.37-.33.49-.52s.22-.27.58-.3c.81-.06,1.42.56,2.19.45C212.33,154.47,212.42,154.76,212.85,154.78Zm-3.92.13s-.1-.07-.13,0-.05.08-.07.13.11.06.14,0S208.91,155,208.93,154.91Z"/><path class="cls-7" d="M206.48,157.8c0,.28,0,.56,0,.83-.33,0-.33.27-.32.51L206,160a13.21,13.21,0,0,1-4.86,6.38c-.5-.07-.61.38-.84.66l-1.17.52c-.58,0-1.06.54-1.69.32l.34-.33a.34.34,0,0,0,.34-.17,8.44,8.44,0,0,0,3.09-2,13.22,13.22,0,0,0,4.58-8.63,15,15,0,0,0-1.67-9.21c-.11-.19-.18-.42-.46-.43l-.18-.49a.3.3,0,0,0-.33-.34,2.12,2.12,0,0,0-.84-1.17l-.16-.17h0c-.1-1-1-1.24-1.68-1.68-.39,0-.53-.38-.84-.51l-.17-.5a2.5,2.5,0,0,1,1.79.78,13.77,13.77,0,0,1,2.77,2.78,16.25,16.25,0,0,1,2.17,4.54,19.66,19.66,0,0,1,.66,5.49,3.8,3.8,0,0,1-.17,1.34C206.41,157.31,206.5,157.57,206.48,157.8Z"/><path class="cls-7" d="M226.44,133.82a5.19,5.19,0,0,1,.67,3.63c-.06.66.23,1.26.17,1.9a20.77,20.77,0,0,0,0,4c-.25,0-.56,0-.46-.37s.18-.75-.28-.75-1.13-.4-1.44.32c-.15.37-.42.27-.68.31h-1.83c0-.34-.28-.33-.52-.34-.1-.36.33-.51.34-.83h.51q.17.26.33,0h.34c.23.64.61.24.93.12s.22-.32.25-.61c.06-.68-.45-1.33-.06-2a.78.78,0,0,0-.06-.8,1.16,1.16,0,0,1-.18-.27c-.2-.49.62-.77.23-1.39a.89.89,0,0,1,.31-1.36s.07-.2,0-.22c-.88-.66,0-1,.27-1.44S226.05,133.87,226.44,133.82Z"/><path class="cls-4" d="M171.43,142.87c.62-.22,1.13-.77,1.89-.56.14,0,.36-.12.44-.33s.11-.26.22-.18c1.08.74,2.25.27,3.39.33a28.35,28.35,0,0,0,4.32,0c1.38-.14,2.75,0,4.12-.09.06,0,.13.08.2.13-.24.38-.69.54-1,.85a.36.36,0,0,0-.34.16h-9.89c-.34-.14-.68-.28-1,0-1.26,0-1.26,0-1.35,1.21,0,.38-.1.75-.15,1.13-.27.25-.07.3.15.34,0,.44,0,.89,0,1.33-.34.08-.42.25-.14.51v.67c-.23.33-.34.64.16.84,0,.17,0,.33,0,.5a2.9,2.9,0,0,0-.16,2.52v1c-.35.2-.5.09-.49-.31,0-.66,0-1.32,0-2,0-.25.07-.51-.29-.56v-.33c.08,0,.22-.08.23-.14s-.12-.18-.24-.2v-4a1,1,0,0,0,0-1.17v-.34C171.8,143.77,171.48,143.32,171.43,142.87Z"/><path class="cls-5" d="M172.26,161.16a5.66,5.66,0,0,1,.2,1.89c-.23,1.08.31,2.41,1.07,2.35s1.53.45,2.46.23c1.09-.26,2.37.13,3.51,0,1.52-.13,3,.38,4.5,0a1,1,0,0,1,.25,0c.36.16.86.38.81.75s-.61.2-.93.2c-2,0-4.1-.07-6.15-.11-1.09,0-2.22,0-3.31,0a3,3,0,0,1-3-1.3,1.78,1.78,0,0,1-.28-.94c0-1,0-2,0-3,.45.09.29.46.33.73s-.11.54.25.73C172.21,162.22,171.83,161.62,172.26,161.16Z"/><path class="cls-15" d="M190.88,169.54c-.76-.2-1.56.13-2.36-.4-.43-.29-1.28.34-1.9.1-1.16-.44-2.49,0-3.56-.81-.44-.33-1.07,0-1.54-.38-.22-.21-.5-.33-.55-.67,1.51,0,3,0,4.53,0a2.62,2.62,0,0,1,1.48.42,14,14,0,0,0,3.81,1.55C190.84,169.33,190.85,169.46,190.88,169.54Z"/><path class="cls-6" d="M172.26,161.16c-.43.46,0,1.06-.25,1.62-.36-.19-.22-.49-.25-.73s.12-.64-.33-.73V159c.16-.12.16-.23,0-.34v-3.52a1,1,0,0,0,0-1.17v-.34c.16-.11.16-.23,0-.34a19.37,19.37,0,0,1,0-2.85c.36.05.29.31.29.56,0,.66,0,1.32,0,2,0,.4.14.51.49.31.41.35,0,.74,0,1.08-.05,1.6.19,3.2,0,4.79-.33.45-.1.9,0,1.35Z"/><path class="cls-15" d="M197.42,169.88a3.65,3.65,0,0,1-2-.33,6.53,6.53,0,0,1,2.19-.32c1.12-.09,2.24-.2,3.36-.27.85-.05,1.68-.16,2.53-.25a3.82,3.82,0,0,0,.79-.2,13.16,13.16,0,0,1,6.39-.14,1.34,1.34,0,0,1-1.33.1,1.22,1.22,0,0,0-1-.06c-.8.31-1.74-.1-2.46.54,0,0-.1,0-.16,0a8.81,8.81,0,0,0-4.64.75h-.5c-.08-.14-.16-.32-.36-.26s-.12.28-.15.43h-.67A1.83,1.83,0,0,0,197.42,169.88Z"/><path class="cls-7" d="M201.11,169.71a8.81,8.81,0,0,1,4.64-.75c.06,0,.13,0,.16,0,.72-.64,1.66-.23,2.46-.54a1.22,1.22,0,0,1,1,.06,1.34,1.34,0,0,0,1.33-.1H211v.17c0,.2.08.46-.32.43-1.46-.11-2.89.41-4.32.34-.79,0-1.48.32-2.24.24-.13,0-.33,0-.39.09-.43.58-1,.42-1.51.26C201.87,169.79,201.44,170,201.11,169.71Z"/><path class="cls-9" d="M181.65,151.43c-.33.41-.09.89-.16,1.34-.22.17-.22.34,0,.5l-.17.34c-.26.26-.55.45-.5-.15a12.91,12.91,0,0,1,1.66-5.88,13.75,13.75,0,0,1,1.88-2.66c.29-.29.54-.64,1-.7-.75,1.18-1.44,2.4-2.24,3.55a8.31,8.31,0,0,0-1.29,3.32A.38.38,0,0,0,181.65,151.43Z"/><path class="cls-15" d="M197.41,167.86c.63.22,1.11-.3,1.69-.32,0,.34-.26.41-.53.53a9.43,9.43,0,0,1-6,.64c-.18-.28-.61-.15-.75-.5.17-.31.49-.19.72-.16a11.3,11.3,0,0,0,3.67-.23A2.59,2.59,0,0,1,197.41,167.86Z"/><path class="cls-9" d="M188.53,142.21a.5.5,0,0,0-.5.33.52.52,0,0,0-.51.33c-.48.34-1,.67-1.43,1a1,1,0,0,1-.74.31c.32-.86,1.11-1.28,1.77-1.77a12,12,0,0,1,3.32-1.64,12.58,12.58,0,0,1,3.46-.62,1.44,1.44,0,0,1-.17.84,1.9,1.9,0,0,0-1.51.17h-.5a2.26,2.26,0,0,0-1.68.5h-.33a.34.34,0,0,0-.34.17H189Z"/><path class="cls-14" d="M210.17,162.67c0,.26.23.33.33.5-.5,1.42-1.93,1.76-3,2.56a9.88,9.88,0,0,1-1.24.69c-.15.09-.34.14-.43,0s0-.29.23-.35a5.92,5.92,0,0,0,2.57-2A17.29,17.29,0,0,1,210.17,162.67Z"/><path class="cls-15" d="M193.73,141a1.44,1.44,0,0,0,.17-.84h1c.46.65,1.21.24,1.79.49s1.54.35,2.07,1a.33.33,0,0,1-.33.18h-.34c-.47-.28-1.09-.1-1.51-.5s-.67-.62-1,0l-.83-.16a1.07,1.07,0,0,0-.67-.17Z"/><path class="cls-15" d="M190,140.32c0-.63.76-.32.88-.78l2.35-.2.67-.15h1.68a.86.86,0,0,0,0,.16c-1.38.41-2.85.27-4.23.67C190.92,140.14,190.46,140.22,190,140.32Z"/><path class="cls-15" d="M198.93,139a8.82,8.82,0,0,1,5,.05c.08,0,.12.17.18.25a6.91,6.91,0,0,1-2.13-.19C201,139,199.94,139.48,198.93,139Z"/><path class="cls-15" d="M211,168.54v-.17a6.48,6.48,0,0,1,3.85,0,8.93,8.93,0,0,1-2.68.17c-.22-.16-.45,0-.67,0Z"/><path class="cls-14" d="M211.18,160.82a1.63,1.63,0,0,1-1,1.68A1.79,1.79,0,0,1,211.18,160.82Z"/><path class="cls-15" d="M196.25,139c.67.18,1.34-.35,2,0-.22.57-.7.24-1.06.3a5.24,5.24,0,0,1-1,0C196.24,139.23,196.25,139.13,196.25,139Z"/><path class="cls-11" d="M206,139.7c.72-.12,1.13.34,1.51.83A5.67,5.67,0,0,1,206,140Z"/><path class="cls-10" d="M206.14,140.86c-.52.21-.88-.26-1.34-.33,0-.1-.08-.29,0-.27C205.27,140.41,205.82,140.38,206.14,140.86Z"/><path class="cls-5" d="M222.07,142.53c.24,0,.49,0,.52.34-.53-.2-.63.41-1,.51C221.61,143,221.4,142.53,222.07,142.53Z"/><path class="cls-4" d="M188,141a1.06,1.06,0,0,1,1.2-.64C189,140.84,188.46,140.86,188,141Z"/><path class="cls-15" d="M171.43,154a1,1,0,0,1,0,1.17A1,1,0,0,1,171.43,154Z"/><path class="cls-14" d="M209.33,166.36a.59.59,0,0,1-.67.33c0-.26.08-.55.39-.63S209.31,166.19,209.33,166.36Z"/><path class="cls-13" d="M187.69,160.15a2,2,0,0,1,.84.84C188.06,160.9,187.65,160.76,187.69,160.15Z"/><path class="cls-11" d="M196.25,139c0,.1,0,.2,0,.3h-.64a.86.86,0,0,1,0-.16C195.71,138.7,196,138.79,196.25,139Z"/><path class="cls-4" d="M186.34,142a.74.74,0,0,1,.87-.65A1.06,1.06,0,0,1,186.34,142Z"/><path class="cls-15" d="M200.27,167c.23-.28.34-.73.84-.66A.82.82,0,0,1,200.27,167Z"/><path class="cls-15" d="M216.37,168.37a.57.57,0,0,1-.83,0A.55.55,0,0,1,216.37,168.37Z"/><path class="cls-14" d="M214.19,154.45c-.27-.24-.13-.56-.16-.84C214.54,153.8,214.43,154.11,214.19,154.45Z"/><path class="cls-5" d="M221.75,148.07h-.16c0-.24,0-.47.28-.52.07.09.65-.18.19.27C222,147.92,221.85,148,221.75,148.07Z"/><path class="cls-9" d="M210.33,143.71c-.36,0-.64-.07-.67-.5C210,143.27,210.29,143.31,210.33,143.71Z"/><path class="cls-15" d="M204.63,139.36c.28,0,.6-.09.69.32C205.05,139.66,204.71,139.8,204.63,139.36Z"/><path class="cls-15" d="M193.4,169.55c-.13.45-.38.4-.68.16C192.91,169.47,193.16,169.56,193.4,169.55Z"/><path class="cls-6" d="M171.78,166.85c-.45,0-.53-.29-.53-.65A.84.84,0,0,1,171.78,166.85Z"/><path class="cls-11" d="M208.13,140.74c.32-.2.33-.19.35.3A.32.32,0,0,1,208.13,140.74Z"/><path class="cls-5" d="M221.88,147.25c-.21-.05-.39-.11-.15-.35C222,146.94,222.18,147,221.88,147.25Z"/><path class="cls-13" d="M187.36,159.65a.5.5,0,0,1,.33.5C187.35,160.14,187.35,159.89,187.36,159.65Z"/><path class="cls-15" d="M171.42,153.27c.17.11.17.23,0,.34C171.25,153.5,171.26,153.39,171.42,153.27Z"/><path class="cls-6" d="M171.08,166a.31.31,0,0,1-.32-.36A.32.32,0,0,1,171.08,166Z"/><path class="cls-14" d="M213.86,156a.36.36,0,0,1,.16-.34C214.28,155.88,214.07,155.92,213.86,156Z"/><path class="cls-5" d="M206,139.7l0,.31a.3.3,0,0,1-.36-.31Z"/><path class="cls-5" d="M227.77,164.68a.32.32,0,0,1-.3.36A.28.28,0,0,1,227.77,164.68Z"/><path class="cls-9" d="M203.63,140c-.27.25-.3,0-.34-.17A.35.35,0,0,1,203.63,140Z"/><path class="cls-6" d="M171.43,149.75c.12,0,.28,0,.24.2s-.15.1-.23.14C171.43,150,171.43,149.86,171.43,149.75Z"/><path class="cls-14" d="M211.34,162.5a.32.32,0,0,1,.34-.34A.32.32,0,0,1,211.34,162.5Z"/><path class="cls-4" d="M187.35,141.35a.29.29,0,0,1,.37-.3A.32.32,0,0,1,187.35,141.35Z"/><path class="cls-5" d="M171.43,158.64c.16.11.16.22,0,.34C171.25,158.87,171.25,158.75,171.43,158.64Z"/><path class="cls-9" d="M184.67,143.21a.36.36,0,0,1,.34-.16C185,143.26,184.93,143.46,184.67,143.21Z"/><path class="cls-5" d="M212,146.23l0-.07,0,.07Z"/><path class="cls-16" d="M215.54,132a29.42,29.42,0,0,0,5-.28,1,1,0,0,1,1.08.44c0,1.78.06,3.56,0,5.33-.06,1.22,0,2.43,0,3.64,0,.43-.19.74-.57.56-.59-.27-1.09,0-1.63,0-2.28,0-4.55,0-6.83,0-.62,0-.94-.24-.87-.9s.2-1.07.19-1.52c0-.83.4-1.71.08-2.46a3.48,3.48,0,0,1-.06-2.44c.14-.48.36-.85,0-1.38-.2-.31.23-.41.45-.35.89.26,1.72-.24,2.59-.18C215.32,132.5,215.57,132.41,215.54,132Z"/><path class="cls-4" d="M223.59,141.7h-.34q-.17-.25-.33,0h-.51c-.46-.61.1-1.24-.06-1.9-.23-.87.49-1.77.05-2.72-.27-.57.08-1,.69-1.08,0,0,.11.09.1.12-.28,1.16.12,2.33,0,3.51a1.72,1.72,0,0,0,.51,1.69C223.71,141.35,223.62,141.57,223.59,141.7Z"/><path class="cls-11" d="M175.8,131.61c-.17-.69.29-.86.81-1.12,1.33-.69,2.68-.26,4-.12.78.09.49,1,.8,1.49.12.2-.29.6-.66.6-1.33,0-2.65.29-4,.2C176.05,132.61,175.65,132.41,175.8,131.61Z"/><path class="cls-11" d="M190.21,132.81c-.13.46-.38.4-.67.17C189.72,132.73,190,132.83,190.21,132.81Z"/><path class="cls-3" d="M194.4,130.46c-.05.17.12.56-.33.34Z"/><path class="cls-3" d="M206.81,126.6a1.8,1.8,0,0,1-1.5.17C205.8,126.61,206.27,126.28,206.81,126.6Z"/><path class="cls-3" d="M204,126.77c0,.12,0,.29-.2.25s-.09-.16-.13-.25Z"/><path class="cls-3" d="M204.8,126.77q-.17.26-.33,0Q204.64,126.51,204.8,126.77Z"/><path class="cls-3" d="M207.15,126.6H207C207,126.51,207.09,126.51,207.15,126.6Z"/><path class="cls-3" d="M196.75,128c0,.24,0,.48-.34.5A.52.52,0,0,1,196.75,128Z"/><path class="cls-3" d="M197.76,127.28c0,.2-.07.42-.34.16A.35.35,0,0,1,197.76,127.28Z"/><path class="cls-3" d="M198.09,127.11l-.07,0,.07,0Z"/><path class="cls-2" d="M171.43,144.21v.34c-.09,0-.24-.07-.26-.13S171.31,144.24,171.43,144.21Z"/><path class="cls-11" d="M194.9,139.18h-.83l.3-.84C194.63,138.63,194.88,138.82,194.9,139.18Z"/><path class="cls-11" d="M193.9,139.19l-.67.15c0-.22-.11-.54.21-.61S193.78,139,193.9,139.19Z"/><path class="cls-6" d="M172.25,152.27a2.9,2.9,0,0,1,.16-2.52A8.54,8.54,0,0,1,172.25,152.27Z"/><path class="cls-15" d="M172.26,160.49c-.1-.45-.33-.9,0-1.35C172.37,159.59,172.59,160,172.26,160.49Z"/><path class="cls-6" d="M173.77,143.22c.33-.28.67-.14,1,0A.8.8,0,0,1,173.77,143.22Z"/><path class="cls-6" d="M172.42,149.25c-.5-.2-.39-.51-.16-.84C172.54,148.65,172.4,149,172.42,149.25Z"/><path class="cls-6" d="M172.27,147.74c-.28-.26-.2-.43.14-.51C172.43,147.42,172.46,147.61,172.27,147.74Z"/><path class="cls-6" d="M172.42,145.9c-.22,0-.42-.09-.15-.34A.32.32,0,0,1,172.42,145.9Z"/><path class="cls-9" d="M214.7,164.68a3.14,3.14,0,0,1,.92-1c.24-.23.71-.46.12-.9-.09-.06.26-.79.48-1.16.06-.1.24.13.31.29s-.19.46,0,.74c.34-.09.56-.72,1-.29,0,.28-.77.5-.06.85.09,0,0,.33-.16.28-1-.39-1.34.62-2,1A1.2,1.2,0,0,1,214.7,164.68Z"/><path class="cls-9" d="M212.85,166c-.52,0-.72-.28-.3-.64a2.24,2.24,0,0,0,.79-1.3,1.19,1.19,0,0,1,.18,1.1C213.21,165.39,212.89,165.6,212.85,166Z"/><path class="cls-14" d="M215.15,165.55a6.88,6.88,0,0,1-.7.43c-.1.05-.24-.09-.19-.19s.22-.52.53-.58S215.09,165.29,215.15,165.55Z"/><path class="cls-3" d="M221.39,160.34c-.45-.3-.53-.56-.42-.87a.18.18,0,0,1,.27-.09C221.54,159.62,221.35,159.92,221.39,160.34Z"/><path class="cls-2" d="M196.58,141.37c.42.4,1,.22,1.51.5,0,.21.08.42.34.16.26.16.49.41.84.34a.29.29,0,0,0,.33.33c.31.13.45.52.84.51a3.89,3.89,0,0,0,1.68,1.68h0l.16.17a2.12,2.12,0,0,1,.84,1.17.32.32,0,0,0,.33.34l.18.49a15.57,15.57,0,0,0,.92,2.42c-.56,0-1.22.3-1.48-.57,0-.12-.27-.17-.44-.06-.66.39-1,0-1.32-.51a6.71,6.71,0,0,0-.87-1,.27.27,0,0,0-.37-.05.34.34,0,0,0-.09.29c.12.61.62,1.13.41,1.84a2.24,2.24,0,0,0,1.06.65,1.11,1.11,0,0,1,.16.67c-.21.17-.31.85-.71.15a.18.18,0,0,0-.29,0,.32.32,0,0,0-.09.37c.09.29.19.59-.08.85-.27-.14-.07-.52-.34-.67,0-.24,0-.49-.33-.51v-.16a.52.52,0,0,0-.34-.51,3.41,3.41,0,0,0-1.17-1.51c.18-.33.28-.62-.28-.69-.28,0-.49-.25-.22-.52.54-.52.19-1.06-.1-1.39a3.72,3.72,0,0,0-2-1.43,1.51,1.51,0,0,1-.83-1.84c.25-.42.52-.29.81,0a.56.56,0,0,0,.82,0c.3-.22.18-.47.09-.74s-.2-.28-.38-.22c-.74.27-1-.34-1.46-.71l.83.16Zm2.75,5.38a.32.32,0,0,0,.26.28c.15,0,.29,0,.27-.19a.3.3,0,0,0-.29-.25C199.46,146.58,199.35,146.61,199.33,146.75Zm4.07,1.41c-.05,0-.11-.14-.2-.17s-.21,0-.21.16a.2.2,0,0,0,.18.22C203.28,148.38,203.38,148.36,203.4,148.16Z"/><path class="cls-7" d="M201.61,150.76a1.11,1.11,0,0,0-.16-.67c.13-.42.36-.47.49-.05a13,13,0,0,1,1,4.15,15.38,15.38,0,0,1-.12,3.25,11.08,11.08,0,0,1-2.06,4.47,9.24,9.24,0,0,1-6.49,3.65,10.66,10.66,0,0,1-4.4-.65,5.48,5.48,0,0,1-1.76-1c-.14-.11-.3-.22-.2-.4s.3-.05.44,0a10.28,10.28,0,0,0,2.4,1.11,8.9,8.9,0,0,0,7-1.11,10.17,10.17,0,0,0,4.43-6.41,9.17,9.17,0,0,0-.18-5.31C201.87,151.44,202.09,151,201.61,150.76Z"/><path class="cls-2" d="M190,162.5l4.53.51c-.38.45-.95.32-1.37.29a25.45,25.45,0,0,1-3-.53C190.13,162.75,190.09,162.59,190,162.5Z"/><path class="cls-2" d="M200.78,155.79c-.34-.53-.1-1.12-.16-1.68C201.24,154.61,201,155.21,200.78,155.79Z"/><path class="cls-2" d="M200.62,153.78c0-.28-.37-.56,0-.84C200.8,153.22,201.26,153.49,200.62,153.78Z"/><path class="cls-2" d="M200.61,156.8c-.3-.35-.19-.62.16-.84C200.74,156.24,200.89,156.56,200.61,156.8Z"/><path class="cls-2" d="M198.43,160.82a.47.47,0,0,1,.5-.5A.47.47,0,0,1,198.43,160.82Z"/><path class="cls-2" d="M197.42,161.82a.47.47,0,0,1,.51-.49A.47.47,0,0,1,197.42,161.82Z"/><path class="cls-2" d="M199.94,158.48c0-.19,0-.39.17-.51C200.37,158.24,200.29,158.4,199.94,158.48Z"/><path class="cls-15" d="M198.09,167.36a.34.34,0,0,1-.34.17C197.79,167.32,197.83,167.11,198.09,167.36Z"/><path class="cls-2" d="M189.71,162.16a.31.31,0,0,1,.33.34A.3.3,0,0,1,189.71,162.16Z"/><path class="cls-2" d="M196.58,162.33a.3.3,0,0,1,.34-.33A.31.31,0,0,1,196.58,162.33Z"/><path class="cls-14" d="M198.43,150.93a1.67,1.67,0,0,1-.06,2.15c-.2.19-.41.36-.61.53-.75-.1-1.55.18-2.24-.2-.43-.24-.65-.18-.76.37-.35-.68-.73-.85-1.23-.34-.25.25-.38.15-.46-.13s0-.36-.28-.33-.14.24-.11.39,0,.36-.14.3c-.5-.16-1.06.16-1.53-.19a.57.57,0,0,0-.61-.14,3.94,3.94,0,0,1-1.87.1l-.17-.33a.35.35,0,0,0-.16-.34c-.12-.5-.45-1-.34-1.5h.34c.62.25,1.29,0,1.87.06,1.65.25,3.3,0,4.94.1,1,.05,2,0,2.93,0C198.31,151.44,198.45,151.28,198.43,150.93Z"/><path class="cls-13" d="M188.53,153.44a3.94,3.94,0,0,0,1.87-.1.57.57,0,0,1,.61.14c.47.35,1,0,1.53.19.17.06.16-.17.14-.3s-.16-.35.11-.39.23.17.28.33.21.38.46.13c.5-.51.88-.34,1.23.34.11-.55.33-.61.76-.37.69.38,1.49.1,2.24.2-.07.92-.79,1.28-1.43,1.71a.43.43,0,0,1-.62,0c-.45-.52-.82-.25-1.18.11a1.46,1.46,0,0,1-1.44.4c-.91-.19-1.88,0-2.73-.52A2.63,2.63,0,0,1,189.1,154C189,153.67,188.57,153.77,188.53,153.44Z"/><path class="cls-15" d="M189.2,149.08l.5-.34a.47.47,0,0,0,.5-.33,5.58,5.58,0,0,1,6.44.19c.41.34,1,.5,1.12,1.14-.16.41-.36.64-.75.2a.49.49,0,0,0-.45-.18,24.62,24.62,0,0,1-3.54.17,15.6,15.6,0,0,0-2.56-.05c-.31.06-.67-.18-1,0s-.36-.06-.39-.29Z"/><path class="cls-5" d="M189,149.58c0,.23.16.39.39.29s.73.07,1,0a15.6,15.6,0,0,1,2.56.05,24.62,24.62,0,0,0,3.54-.17.49.49,0,0,1,.45.18c.39.44.59.21.75-.2.58.2.39.83.67,1.19,0,.35-.12.51-.49.5-1,0-2,0-2.93,0-1.64-.09-3.29.15-4.94-.1-.58-.09-1.25.19-1.87-.06v-.34c-.08-.6.5-.87.67-1.34Z"/><path class="cls-13" d="M199.77,150.92c.34,0,.34.27.33.51C199.77,151.41,199.77,151.17,199.77,150.92Z"/><path class="cls-13" d="M190.2,148.41a.47.47,0,0,1-.5.33C189.72,148.41,190,148.41,190.2,148.41Z"/><path class="cls-13" d="M189,149.58h-.17c0-.24,0-.49.34-.5Z"/><path class="cls-13" d="M199.43,150.25a.52.52,0,0,1,.34.51C199.43,150.74,199.43,150.5,199.43,150.25Z"/><path class="cls-13" d="M188.2,152.77a.35.35,0,0,1,.16.34C188.15,153.07,187.94,153,188.2,152.77Z"/><path class="cls-13" d="M188.19,150.92v.34h-.34A.31.31,0,0,1,188.19,150.92Z"/><path class="cls-2" d="M193.73,141h.34c-.57.63-1.21.33-1.85.17A1.9,1.9,0,0,1,193.73,141Z"/><path class="cls-2" d="M190,141.7a2.26,2.26,0,0,1,1.68-.5A1.56,1.56,0,0,1,190,141.7Z"/><path class="cls-2" d="M193.5,143.52c-.23,0-.27-.19-.25-.37a.23.23,0,0,1,.27-.24c.18,0,.32.11.31.31S193.67,143.5,193.5,143.52Z"/><path class="cls-2" d="M188.53,142.21l.51-.34c0,.24,0,.51-.29.59S188.56,142.33,188.53,142.21Z"/><path class="cls-2" d="M187.52,142.87a.52.52,0,0,1,.51-.33C188,142.79,188,143.17,187.52,142.87Z"/><path class="cls-2" d="M181.49,153.27c-.22-.16-.22-.33,0-.5C181.7,152.94,181.7,153.11,181.49,153.27Z"/><path class="cls-2" d="M181.65,151.43a.38.38,0,0,1,.17-.34C182.07,151.36,181.87,151.39,181.65,151.43Z"/><path class="cls-2" d="M183.45,155.19l.14.06c0,.05,0,.12-.06.13s-.09,0-.14,0Z"/><path class="cls-2" d="M189.37,141.87a.34.34,0,0,1,.34-.17C189.67,141.91,189.63,142.12,189.37,141.87Z"/><path class="cls-14" d="M209.13,153.62c0,.27-.16.32-.37.32s-.37,0-.36-.21a.39.39,0,0,1,.32-.42A.36.36,0,0,1,209.13,153.62Z"/><path class="cls-14" d="M213,153.78a.58.58,0,0,1-.17.84c-.12-.22-.17-.5-.5-.51C212.29,153.43,212.82,153.94,213,153.78Z"/><path class="cls-7" d="M199.27,142.37c-.35.07-.58-.18-.84-.34v-.16a.33.33,0,0,0,.33-.18c.37,0,.55.14.51.51Z"/><path class="cls-5" d="M209.35,149.91c-.18,0-.34-.06-.31-.28s.17-.2.31-.2.37,0,.36.24S209.52,149.9,209.35,149.91Z"/><path class="cls-5" d="M210,149.91c.28-.23.47-.38.79-.21C210.63,150,210.45,150.11,210,149.91Z"/><path class="cls-5" d="M208.16,150.14a2.63,2.63,0,0,1,.52-.15c.08,0,.1.13,0,.19S208.45,150.27,208.16,150.14Z"/><path class="cls-15" d="M199.27,142.37v-.17h.16l.17.5A.29.29,0,0,1,199.27,142.37Z"/><path class="cls-7" d="M197.42,169.88a1.83,1.83,0,0,1,2,0C198.76,170,198.09,170.3,197.42,169.88Z"/><path class="cls-7" d="M211.51,168.54c.22,0,.45-.16.67,0a.31.31,0,0,1-.38.32C211.6,168.85,211.53,168.72,211.51,168.54Z"/><path class="cls-7" d="M200.1,169.88c0-.15,0-.36.15-.43s.28.12.36.26C200.49,169.91,200.29,169.87,200.1,169.88Z"/><path class="cls-9" d="M212.35,154.11c.33,0,.38.29.5.51v.16C212.42,154.76,212.33,154.47,212.35,154.11Z"/><path class="cls-9" d="M212.85,156.29c-.26-.16-.52-.33,0-.5C213.07,156,213.07,156.13,212.85,156.29Z"/><path class="cls-9" d="M206.48,157.8c0-.23-.07-.49.17-.67C207.16,157.49,207,157.69,206.48,157.8Z"/><path class="cls-9" d="M206.15,159.14c0-.24,0-.48.32-.51A.48.48,0,0,1,206.15,159.14Z"/><path class="cls-9" d="M208.93,154.91c0,.05,0,.12-.06.13s-.09,0-.14,0,0-.12.07-.13S208.89,154.89,208.93,154.91Z"/><path class="cls-15" d="M202.12,144.89a3.89,3.89,0,0,1-1.68-1.68C201.11,143.65,202,143.86,202.12,144.89Z"/><path class="cls-10" d="M203.45,146.57a.32.32,0,0,1-.33-.34A.3.3,0,0,1,203.45,146.57Z"/><path class="cls-15" d="M202.28,145.06l-.16-.17Z"/><path class="cls-6" d="M222.92,141.7q.17-.25.33,0Q223.08,142,222.92,141.7Z"/><path class="cls-9" d="M196.58,141.37h-1C195.91,140.75,196.25,141,196.58,141.37Z"/><path class="cls-10" d="M198.43,141.87V142c-.26.26-.3.05-.34-.16Z"/><path class="cls-10" d="M199.33,146.75c0-.14.13-.17.24-.16a.3.3,0,0,1,.29.25c0,.18-.12.23-.27.19A.32.32,0,0,1,199.33,146.75Z"/><path class="cls-10" d="M203.4,148.16c0,.2-.12.22-.23.21a.2.2,0,0,1-.18-.22c0-.14.1-.21.21-.16S203.35,148.12,203.4,148.16Z"/><line class="cls-17" x1="166.17" y1="181.51" x2="233.04" y2="114.64"/><circle class="cls-18" cx="200" cy="150" r="48.56"/></g></g></svg>